# xmcd
#
# Track frame offsets: 
#        150
#        14255
#        28193
#        45655
#        61082
#        74685
#        88992
#        100372
#        115609
#        129999
#        143885
#        161369
#        172285
#        185836
#        199301
#        221186
#        235452
#        246522
#        260586
#        274417
#        287896
#        301901
#        314585
#
# Disc length: 4345 seconds
#
# Revision: 0
# Processed by: cddbd v1.5.2PL0 Copyright (c) Steve Scherf et al.
# Submitted via: ExactAudioCopyFreeDBPlugin 1.0
#
DISCID=7410f717
DTITLE=Young, Lester - The Essence Of Lester Young (2 Of 2)
DYEAR=2011
DGENRE=Jazz
TTITLE0=Jumpin' At The Woodside
TTITLE1=You're Driving Me Crazy
TTITLE2=Back To The Land
TTITLE3=Blue Lester
TTITLE4=I Never Knew
TTITLE5=Hello Babe
TTITLE6=Lester Blows Again
TTITLE7=Ghost Of A Chance
TTITLE8=You Can Depend On Me
TTITLE9=Sometimes I'm Happy
TTITLE10=I Cover The Waterfront
TTITLE11=Bells 'N' Blues
TTITLE12=D B Blues
TTITLE13=Just Coolin'
TTITLE14=I Can't Get Started
TTITLE15=East Of The Sun
TTITLE16=Clap Hands, Here Comes Charlie
TTITLE17=This Years Kisses
TTITLE18=S M Blues
TTITLE19=Countless Blues
TTITLE20=It's Only A Paper Moon
TTITLE21=A Sailboat In The Moonlight
TTITLE22=Sheik Of Araby
EXTD=
EXTT0=
EXTT1=
EXTT2=
EXTT3=
EXTT4=
EXTT5=
EXTT6=
EXTT7=
EXTT8=
EXTT9=
EXTT10=
EXTT11=
EXTT12=
EXTT13=
EXTT14=
EXTT15=
EXTT16=
EXTT17=
EXTT18=
EXTT19=
EXTT20=
EXTT21=
EXTT22=
PLAYORDER=
